<?xml version="1.0" encoding="UTF-8" standalone="no"?>
<svg
   xmlns:dc="http://purl.org/dc/elements/1.1/"
   xmlns:cc="http://creativecommons.org/ns#"
   xmlns:rdf="http://www.w3.org/1999/02/22-rdf-syntax-ns#"
   xmlns:svg="http://www.w3.org/2000/svg"
   xmlns="http://www.w3.org/2000/svg"
   xmlns:sodipodi="http://sodipodi.sourceforge.net/DTD/sodipodi-0.dtd"
   xmlns:inkscape="http://www.inkscape.org/namespaces/inkscape"
   width="2500"
   height="617"
   viewBox="0 0.01 799.993 197.49"
   id="svg2"
   version="1.1"
   inkscape:version="0.91 r13725"
   sodipodi:docname="logo.svg">
  <sodipodi:namedview
     pagecolor="#ffffff"
     bordercolor="#666666"
     borderopacity="100%"
     objecttolerance="10"
     gridtolerance="10"
     guidetolerance="10"
     inkscape:pageopacity="0"
     inkscape:pageshadow="2"
     inkscape:window-width="1280"
     inkscape:window-height="1002"
     id="namedview6"
     showgrid="false"
     inkscape:zoom="0.2328"
     inkscape:cx="643.16547"
     inkscape:cy="313.17523"
     inkscape:window-x="-8"
     inkscape:window-y="-8"
     inkscape:window-maximized="1"
     inkscape:current-layer="layer2" />
  <metadata
     id="metadata10">
    <rdf:RDF>
      <cc:Work
         rdf:about="">
        <dc:format>image/svg+xml</dc:format>
        <dc:type
           rdf:resource="http://purl.org/dc/dcmitype/StillImage" />
      </cc:Work>
    </rdf:RDF>
  </metadata>
  <defs
     id="defs8" />
  <g
     inkscape:groupmode="layer"
     id="layer2"
     inkscape:label="Layer 1"
     style="display:inline;opacity:0.22641509">
    <path
       id="path4"
       d="m 25.099972,0.0998387 172.099998,0 -7.3,56.3000003 -171.799998,0 7,-56.3000003 z m -10.1,77.0000003 172.300998,0 -5.301,45.800001 -107.698998,0 -2.801,21.9 107.899998,0 -6.7,52.29999 -172.699998448955,0 L 14.999972,77.099839 Z m 184.999998,-20.7 c 0,0 1.2,-19.200001 5.99999,-29.200001 4.5,-9.4 10.50001,-16.2 20.60101,-21.8999995 5.99999,-3.1999999 16.7,-5.1999998 16.7,-5.1999998 l 309.99999,0 c 0,0 13,0.2 18.6,2.4999999 5.99999,2.5000002 14.70001,6.2000005 19.29999,17.3999994 4.50002,10.7 3.60101,14.200001 3.60101,24.900001 0,10.499999 -0.301,11.5 -0.301,11.5 l -394.50099,0 z m -2.8,21.199998 158.60101,0 c 0,0 14.09999,0 20.6,3.900002 6.79999,4.5 9.89998,10.000001 11.89997,18.699991 1.89901,8.70001 -3.4,52.60001 -6.49998,63.3 -3.4,10.5 -7.40002,20.40001 -23.801,28.6 -14.69902,7.50001 -36.99999,5 -36.99999,5 l -137.00001,0 8.10099,-52.29999 128.30002,0 2.59999,-22.2 -88.5,0 c 0,0 -14.399,1.99999 -27.899,-9.699 -8.20001,-7.00001 -9.101,-17.700002 -9.601,-22.400002 -0.601,-2.701 0.199,-12.901001 0.199,-12.901001 z m 206.3,0 187.1,0 c 0,0 -1.70001,21.600004 -6.79999,29.299993 -5.10101,8.00001 -9.60103,12.30001 -18.101,14.19901 -8.70003,2 -21.70002,2 -21.70002,2 l -81.39901,0 -8.49997,74 -65.30002,0 14.70001,-119.499003 z m 199.80101,-20.7 194.399,0 c 0,0 3.7,-16.999997 1.7,-27.699999 -2,-10.7 -6.8,-17.9 -14.7,-23.0999994 -10.399,-7.3 -29.399,-5.9999999 -29.1,-5.9999999 l -144.40001,0 -7.89899,56.7999983 z m -2.50003,20.7 64.39902,0 -14.7,119.499993 -63.90002,0 14.201,-119.499993 z m 129.399,0.500002 63.80003,0 -14.699,118.999991 -63.5,0 14.39897,-118.999991 z"
       inkscape:connector-curvature="0"
       style="fill:#000000" />
  </g>
</svg>
